<?xml version="1.0" standalone="no"?>
<!DOCTYPE svg PUBLIC "-//W3C//DTD SVG 20010904//EN"
 "http://www.w3.org/TR/2001/REC-SVG-20010904/DTD/svg10.dtd">
<svg version="1.0" xmlns="http://www.w3.org/2000/svg"
 width="512.000000pt" height="512.000000pt" viewBox="0 0 512.000000 512.000000"
 preserveAspectRatio="xMidYMid meet">
<metadata>
Created by potrace 1.14, written by Peter Selinger 2001-2017
</metadata>
<g transform="translate(0.000000,512.000000) scale(0.100000,-0.100000)"
fill="#000000" stroke="none">
<path d="M2389 4796 c-2 -2 -33 -6 -69 -9 -36 -3 -101 -13 -145 -21 -44 -8
-94 -17 -112 -20 -38 -7 -293 -85 -308 -94 -5 -4 -14 -7 -20 -8 -14 -3 -252
-119 -300 -147 -171 -99 -301 -201 -460 -361 -109 -110 -240 -267 -292 -351
-201 -325 -313 -640 -350 -990 -10 -86 -9 -396 0 -484 33 -306 147 -640 311
-911 50 -81 157 -234 175 -250 4 -3 25 -28 48 -56 34 -41 138 -146 232 -234
26 -24 221 -170 227 -170 3 0 24 -13 47 -29 23 -16 78 -48 122 -71 44 -23 86
-47 94 -54 8 -6 15 -10 15 -8 1 4 38 -10 96 -36 153 -69 394 -132 605 -158
120 -15 543 -7 597 11 7 2 29 6 48 9 205 31 507 138 696 247 92 53 236 147
276 181 14 13 52 43 83 67 120 95 365 371 426 481 8 14 16 27 19 30 39 37 220
413 217 450 0 3 6 16 13 30 13 24 66 216 76 275 3 17 9 55 15 85 24 135 33
439 17 595 -14 131 -56 330 -97 454 -22 68 -38 128 -34 134 3 5 1 7 -4 4 -6
-4 -18 14 -28 41 -20 54 -128 264 -156 304 -11 14 -19 29 -19 32 0 4 -5 12
-10 19 -6 7 -41 53 -78 104 -182 248 -432 474 -667 603 -33 18 -67 39 -76 46
-8 8 -18 14 -21 14 -4 0 -39 15 -80 34 -144 68 -234 100 -423 151 -48 13 -147
32 -210 41 -16 3 -43 7 -60 10 -34 6 -431 15 -436 10z m221 -1126 c19 -5 51
-25 70 -43 19 -17 60 -52 90 -77 30 -25 57 -47 60 -50 3 -3 52 -46 110 -95 58
-50 107 -92 110 -95 3 -3 42 -36 88 -74 45 -38 82 -73 82 -77 0 -4 8 -10 18
-13 9 -3 35 -23 57 -44 22 -21 85 -76 140 -122 332 -282 383 -329 395 -364 19
-58 1 -133 -41 -173 -37 -34 -73 -43 -175 -43 l-94 0 0 -414 c0 -444 -1 -456
-52 -503 -42 -39 -70 -43 -334 -43 l-254 0 0 480 0 480 -320 0 -320 0 0 -481
0 -480 -269 3 c-254 3 -271 4 -297 24 -15 11 -37 33 -48 48 -20 27 -21 41 -24
457 l-3 429 -87 0 c-48 0 -102 4 -120 9 -88 26 -136 132 -97 214 18 38 28 48
180 177 55 47 106 90 113 97 9 9 12 73 12 253 0 181 3 249 14 273 41 97 171
126 251 56 43 -38 55 -80 55 -197 0 -52 4 -92 8 -90 5 2 129 106 276 233 147
126 279 235 294 241 34 16 67 17 112 4z"/>
</g>
</svg>
